HIERARCHY
ROOT Hip
{
	OFFSET 0 1.131 0.0052
	CHANNELS 6 Xposition Yposition Zposition Xrotation Yrotation Zrotation
	JOINT Abdomen
	{
		OFFSET 0 -0.047353 -0.05
		CHANNELS 3 Xrotation Zrotation Yrotation
		JOINT Chest
		{
			OFFSET 0 0.132153 0.007439
			CHANNELS 3 Xrotation Zrotation Yrotation
			JOINT Neck
			{
				OFFSET 0 0.3078 0.006161
				CHANNELS 3 Xrotation Zrotation Yrotation
				JOINT Head_comp
				{
					OFFSET 0 0.0884 0.013
					CHANNELS 3 Xrotation Yrotation Zrotation
					End Site
					{
						OFFSET -0 0.156 0.0624
					}
				}
			}
			JOINT Left_Collar
			{
				OFFSET 0.02282 0.250342 0.017193
				CHANNELS 2 Yrotation Zrotation
				JOINT Left_Shoulder
				{
					OFFSET 0.15421 0 0
					CHANNELS 3 Xrotation Yrotation Zrotation
					JOINT Left_Forearm
					{
						OFFSET 0.265212 0 0
						CHANNELS 2 Yrotation Xrotation
						JOINT Left_Hand
						{
							OFFSET 0.27571 0 0
							CHANNELS 2 Zrotation Yrotation
							JOINT L1ProxPhalanx
							{
								OFFSET 0.014142 0.001733 0.014142
								CHANNELS 3 Yrotation Zrotation Xrotation
								JOINT L1MidPhalanx
								{
									OFFSET 0.04 0 0
									CHANNELS 1 Zrotation
									JOINT L1DistPhalanx
									{
										OFFSET 0.035 0 0
										CHANNELS 1 Zrotation
										End Site
										{
											OFFSET 0.029 -0 -0
										}
									}
								}
							}
							JOINT L2ProxPhalanx
							{
								OFFSET 0.0821037 0.001578 0.0219996
								CHANNELS 2 Yrotation Zrotation
								JOINT L2MidPhalanx
								{
									OFFSET 0.04 0 0
									CHANNELS 1 Zrotation
									JOINT L2DistPhalanx
									{
										OFFSET 0.028 0 0
										CHANNELS 1 Zrotation
										End Site
										{
											OFFSET 0.02 -0 -0
										}
									}
								}
							}
							JOINT L3ProxPhalanx
							{
								OFFSET 0.083 0 0
								CHANNELS 2 Yrotation Zrotation
								JOINT L3MidPhalanx
								{
									OFFSET 0.053 0 0
									CHANNELS 1 Zrotation
									JOINT L3DistPhalanx
									{
										OFFSET 0.03 0 0
										CHANNELS 1 Zrotation
										End Site
										{
											OFFSET 0.023 -0 -0
										}
									}
								}
							}
							JOINT L4ProxPhalanx
							{
								OFFSET 0.077274 -0.000761 -0.0207055
								CHANNELS 2 Yrotation Zrotation
								JOINT L4MidPhalanx
								{
									OFFSET 0.05 0 0
									CHANNELS 1 Zrotation
									JOINT L4DistPhalanx
									{
										OFFSET 0.03 0 0
										CHANNELS 1 Zrotation
										End Site
										{
											OFFSET 0.023 -0 -0
										}
									}
								}
							}
							JOINT L5ProxPhalanx
							{
								OFFSET 0.0675499 -0.001644 -0.039
								CHANNELS 2 Yrotation Zrotation
								JOINT L5MidPhalanx
								{
									OFFSET 0.04 0 0
									CHANNELS 1 Zrotation
									JOINT L5DistPhalanx
									{
										OFFSET 0.021 0 0
										CHANNELS 1 Zrotation
										End Site
										{
											OFFSET 0.022 -0 -0
										}
									}
								}
							}
						}
					}
				}
			}
			JOINT Right_Collar
			{
				OFFSET -0.02282 0.250342 0.017193
				CHANNELS 2 Yrotation Zrotation
				JOINT Right_Shoulder
				{
					OFFSET -0.15421 0 0
					CHANNELS 3 Xrotation Yrotation Zrotation
					JOINT Right_Forearm
					{
						OFFSET -0.265212 0 0
						CHANNELS 2 Yrotation Xrotation
						JOINT Right_Hand
						{
							OFFSET -0.27571 3e-006 0
							CHANNELS 2 Zrotation Yrotation
							JOINT R1ProxPhalanx
							{
								OFFSET -0.014142 0.001733 0.014142
								CHANNELS 3 Yrotation Zrotation Xrotation
								JOINT R1MidPhalanx
								{
									OFFSET -0.04 0 0
									CHANNELS 1 Zrotation
									JOINT R1DistPhalanx
									{
										OFFSET -0.035 0 0
										CHANNELS 1 Zrotation
										End Site
										{
											OFFSET -0.029 -0 -0
										}
									}
								}
							}
							JOINT R2ProxPhalanx
							{
								OFFSET -0.0821037 0.001578 0.0219996
								CHANNELS 2 Yrotation Zrotation
								JOINT R2MidPhalanx
								{
									OFFSET -0.04 0 0
									CHANNELS 1 Zrotation
									JOINT R2DistPhalanx
									{
										OFFSET -0.028 0 0
										CHANNELS 1 Zrotation
										End Site
										{
											OFFSET -0.02 -0 -0
										}
									}
								}
							}
							JOINT R3ProxPhalanx
							{
								OFFSET -0.083 0 0
								CHANNELS 2 Yrotation Zrotation
								JOINT R3MidPhalanx
								{
									OFFSET -0.053 0 0
									CHANNELS 1 Zrotation
									JOINT R3DistPhalanx
									{
										OFFSET -0.03 0 0
										CHANNELS 1 Zrotation
										End Site
										{
											OFFSET -0.023 -0 -0
										}
									}
								}
							}
							JOINT R4ProxPhalanx
							{
								OFFSET -0.077274 -0.000761 -0.0207055
								CHANNELS 2 Yrotation Zrotation
								JOINT R4MidPhalanx
								{
									OFFSET -0.05 0 0
									CHANNELS 1 Zrotation
									JOINT R4DistPhalanx
									{
										OFFSET -0.03 0 0
										CHANNELS 1 Zrotation
										End Site
										{
											OFFSET -0.023 -0 -0
										}
									}
								}
							}
							JOINT R5ProxPhalanx
							{
								OFFSET -0.0675499 -0.001644 -0.039
								CHANNELS 2 Yrotation Zrotation
								JOINT R5MidPhalanx
								{
									OFFSET -0.04 0 0
									CHANNELS 1 Zrotation
									JOINT R5DistPhalanx
									{
										OFFSET -0.021 0 0
										CHANNELS 1 Zrotation
										End Site
										{
											OFFSET -0.022 -0 -0
										}
									}
								}
							}
						}
					}
				}
			}
		}
	}
	JOINT Left_Thigh
	{
		OFFSET 0.1118 -0.1612 -0.0442
		CHANNELS 3 Xrotation Zrotation Yrotation
		JOINT Left_Shin
		{
			OFFSET 0 -0.477856 0
			CHANNELS 1 Xrotation
			JOINT Left_Foot
			{
				OFFSET 0 -0.431952 0
				CHANNELS 2 Xrotation Zrotation
				JOINT Left_Toe
				{
					OFFSET 0 -0.0442 0.119
					CHANNELS 1 Xrotation
					End Site
					{
						OFFSET -0 -0 0.07
					}
				}
			}
		}
	}
	JOINT Right_Thigh
	{
		OFFSET -0.1118 -0.1612 -0.0442
		CHANNELS 3 Xrotation Zrotation Yrotation
		JOINT Right_Shin
		{
			OFFSET 0 -0.477856 0
			CHANNELS 1 Xrotation
			JOINT Right_Foot
			{
				OFFSET 0 -0.431952 0
				CHANNELS 2 Xrotation Zrotation
				JOINT Right_Toe
				{
					OFFSET 0 -0.0442 0.119
					CHANNELS 1 Xrotation
					End Site
					{
						OFFSET -0 -0 0.07
					}
				}
			}
		}
	}
}
MOTION
Frames: 14
Frame Time: 0.009975
-0.0980452 -0.0600965 0.0399962 3.21359e-012 5.11901e-009 -5.10991e-006 0 -0 0 0 -0 0 0 -0 0 -0.712156 0.280975 -2.54261e-012 4.3158 -19.0676 -10.7871 -17.8794 -28.6876 -86.8444 0.514803 5.21185 8.75313 -40.5316 -43.5896 103.283 -7.10789 -4.81548 2.69559 -7.40342 -2.98992 -6.72733 5.89092 0.508958 -5.4973 -5.3917 11.1257 1.19015 -12.1062 -9.35422 19.4153 3.33565 -41.2194 -1.46018 7.52201 13.1245 -29.3447 20.3138 24.6054 30.4307 12.2292 -3.40261 -4.46954 68.3477 58.9293 76.6021 9.09023 9.18018 0.690901 20.0533 -5.17618 -1.3457 -5.98368 0.0720291 1.1 2.52168 -12.9721 -1.83376 21.3924 -4.20385 -15.5885 -5.56419 66.3043 -35.7367 0.051336 -0.866242 -0.000775981 0.0240216 -0.0753518 0.866248 0 0.0627421 -0.866242 -0.00094842 1.20138e-006 -0.0627362 0.866248 0 
-0.0981478 -0.0600952 0.0401485 -9.82812e-013 6.07705e-009 -5.1099e-006 0 -0 0 0 -0 0 0 -0 0 -0.712161 0.281282 6.34582e-012 4.3158 -19.0676 -10.7871 -17.8794 -28.6876 -86.8444 0.514803 5.21185 8.75313 -40.5316 -43.5896 103.283 -7.10789 -4.81548 2.69559 -7.40342 -2.98992 -6.72733 5.89092 0.508958 -5.4973 -5.3917 11.1257 1.19015 -12.1062 -9.35422 19.4153 3.33565 -41.2194 -1.46018 6.90792 13.4768 -29.6227 20.1284 25.0522 33.1541 11.6225 -4.52397 -4.09185 67.34 54.2067 84.5681 10.0759 5.90193 2.06194 16.7135 -3.3101 -0.35085 -6.00624 0.0226391 1.42286 3.10444 -14.77 -1.50625 17.9066 -3.49548 -20.0808 -5.09481 66.6287 -37.0688 0.0609303 -0.859786 -0.000914165 0.0240216 -0.0849451 0.859791 0 0.0723356 -0.859785 -0.00108531 2.41484e-006 -0.0723301 0.859791 0 
-0.0982519 -0.0600939 0.0403652 8.63906e-013 6.83309e-009 -5.10989e-006 0 -0 0 0 -0 0 0 -0 0 -0.712173 0.281511 5.66283e-012 4.3158 -19.0676 -10.7871 -17.8794 -28.6876 -86.8444 0.514803 5.21185 8.75313 -40.5316 -43.5896 103.283 -7.10789 -4.81548 2.69559 -7.40342 -2.98992 -6.72733 5.89092 0.508958 -5.4973 -5.3917 11.1257 1.19015 -12.1062 -9.35422 19.4153 3.33565 -41.2194 -1.46018 6.1296 13.8312 -29.4614 20.1098 25.392 36.3748 10.5986 -5.74929 -3.7323 60.8594 44.0598 89.8836 8.33697 3.29332 1.96764 9.41752 -0.0306596 2.13974 -7.60091 -0.244308 1.96616 4.73904 -17.7695 -1.06026 10.138 0.0532585 -28.0851 -3.78064 53.2768 -33.1989 0.0745783 -0.853225 -0.00111031 0.0240216 -0.0985916 0.853231 0 0.0859835 -0.853225 -0.00128015 1.43706e-006 -0.0859754 0.853231 0 
-0.0983737 -0.0600926 0.0406387 -8.8333e-012 8.52927e-009 -5.10988e-006 0 -0 0 0 -0 0 0 -0 0 -0.712194 0.281676 -9.32884e-012 4.3158 -19.0676 -10.7871 -17.8794 -28.6876 -86.8444 0.514803 5.21185 8.75313 -40.5316 -43.5896 103.283 -7.10789 -4.81548 2.69559 -7.40342 -2.98992 -6.72733 5.89092 0.508958 -5.4973 -5.3917 11.1257 1.19015 -12.1062 -9.35422 19.4153 3.33565 -41.2194 -1.46018 5.06734 14.0712 -28.9042 20.5435 25.8487 39.8827 9.11225 -7.01353 -3.43273 55.1587 39.241 91.9861 6.64146 1.89892 0.407279 5.6388 1.29155 3.94464 -9.12058 -0.401075 2.06607 5.41157 -19.079 -0.987843 6.14412 2.93604 -31.4338 -2.98804 39.8885 -27.945 0.0918066 -0.845558 -0.0013545 0.0240216 -0.115818 0.845564 0 0.103212 -0.845557 -0.00152281 1.38751e-006 -0.103202 0.845564 0 
-0.0985147 -0.0600908 0.0408167 3.08126e-012 9.90817e-009 -5.10986e-006 0 -0 0 0 -0 0 0 -0 0 -0.712193 0.282235 1.87106e-011 4.3158 -19.0676 -10.7871 -17.8794 -28.6876 -86.8444 0.514803 5.21185 8.75313 -40.5316 -43.5896 103.283 -7.10789 -4.81548 2.69559 -7.40342 -2.98992 -6.72733 5.89092 0.508958 -5.4973 -5.3917 11.1257 1.19015 -12.1062 -9.35422 19.4153 3.33565 -41.2194 -1.46018 4.53112 14.0466 -28.1903 20.1403 26.2367 43.4809 8.27034 -7.60127 -3.31262 55.0507 39.325 91.6303 6.99349 1.98447 0.440465 5.88265 1.56565 4.39125 -8.95891 -0.195546 2.31679 5.36025 -19.0303 -0.694433 6.50198 3.10151 -31.1004 -2.74277 40.3075 -27.586 0.103013 -0.836676 -0.0015041 0.0240216 -0.127023 0.836682 0 0.114418 -0.836675 -0.00167064 1.45122e-006 -0.114407 0.836682 0 
-0.0986273 -0.0600895 0.0409712 5.2493e-012 1.05157e-008 -5.10985e-006 0 -0 0 0 -0 0 0 -0 0 -0.71219 0.282747 -4.53666e-012 4.3158 -19.0676 -10.7871 -17.8794 -28.6876 -86.8444 0.514803 5.21185 8.75313 -40.5316 -43.5896 103.283 -7.10789 -4.81548 2.69559 -7.40342 -2.98992 -6.72733 5.89092 0.508958 -5.4973 -5.3917 11.1257 1.19015 -12.1062 -9.35422 19.4153 3.33565 -41.2194 -1.46018 4.45269 13.8085 -27.2854 18.9109 26.5883 46.9544 8.12719 -7.4697 -3.25529 54.706 39.097 91.269 7.38125 2.5176 0.695872 6.13113 2.11885 4.69837 -8.77842 0.260394 2.92718 5.81887 -18.8208 -0.0618463 7.01981 3.51778 -30.6317 -2.14889 40.2037 -26.4255 0.112743 -0.829585 -0.0016322 0.0240216 -0.136753 0.829591 0 0.124149 -0.829584 -0.00179734 8.2816e-007 -0.124137 0.829591 0 
-0.0987166 -0.0600887 0.0411875 -6.61839e-012 1.16629e-008 -5.10984e-006 0 -0 0 0 -0 0 0 -0 0 -0.712199 0.283038 -7.57815e-012 4.3158 -19.0676 -10.7871 -17.8794 -28.6876 -86.8444 0.514803 5.21185 8.75313 -40.5316 -43.5896 103.283 -7.10789 -4.81548 2.69559 -7.40342 -2.98992 -6.72733 5.89092 0.508958 -5.4973 -5.3917 11.1257 1.19015 -12.1062 -9.35422 19.4153 3.33565 -41.2194 -1.46018 4.37539 13.5972 -26.1822 17.5838 26.9195 50.3077 7.9861 -7.34002 -3.19877 54.3612 38.869 90.9078 7.76901 3.05073 0.951279 6.37962 2.67206 5.0055 -8.59793 0.716333 3.53757 6.27748 -18.6114 0.570742 7.53764 3.93404 -30.1629 -1.55501 40.0998 -25.2649 0.126369 -0.823959 -0.00181707 0.0240216 -0.150378 0.823966 0 0.137775 -0.823959 -0.00198109 8.83656e-007 -0.137762 0.823966 0 
-0.0987986 -0.0600881 0.0414201 -4.4439e-012 1.29569e-008 -5.10983e-006 0 -0 0 0 -0 0 0 -0 0 -0.712213 0.283297 -7.92592e-012 4.3158 -19.0676 -10.7871 -17.8794 -28.6876 -86.8444 0.514803 5.21185 8.75313 -40.5316 -43.5896 103.283 -7.10789 -4.81548 2.69559 -7.40342 -2.98992 -6.72733 5.89092 0.508958 -5.4973 -5.3917 11.1257 1.19015 -12.1062 -9.35422 19.4153 3.33565 -41.2194 -1.46018 4.29901 13.4006 -25.0256 16.3164 27.2432 53.3558 7.84669 -7.21189 -3.14293 54.0165 38.641 90.5465 8.15677 3.58385 1.20669 6.62811 3.22526 5.31262 -8.41744 1.17227 4.14797 6.7361 -18.4019 1.20333 8.05547 4.35031 -29.6941 -0.961128 39.996 -24.1044 0.141016 -0.818797 -0.00201501 0.0240216 -0.165024 0.818805 0 0.152422 -0.818797 -0.00217801 1.15912e-006 -0.152408 0.818805 0 
-0.0988762 -0.0600877 0.0416556 -4.27325e-012 1.42833e-008 -5.10982e-006 0 -0 0 0 -0 0 0 -0 0 -0.712228 0.283536 -7.81026e-012 4.3158 -19.0676 -10.7871 -17.8794 -28.6876 -86.8444 0.514803 5.21185 8.75313 -40.5316 -43.5896 103.283 -7.10789 -4.81548 2.69559 -7.40342 -2.98992 -6.72733 5.89092 0.508958 -5.4973 -5.3917 11.1257 1.19015 -12.1062 -9.35422 19.4153 3.33565 -41.2194 -1.46018 4.22342 13.2127 -23.8573 15.1313 27.5723 56.1279 7.70871 -7.08508 -3.08767 53.6717 38.413 90.1852 8.54453 4.11698 1.46209 6.8766 3.77846 5.61975 -8.23695 1.62821 4.75836 7.19472 -18.1924 1.83592 8.5733 4.76657 -29.2253 -0.367248 39.8921 -22.9438 0.155852 -0.813904 -0.00221371 0.0240216 -0.179857 0.813912 0 0.167258 -0.813904 -0.00237573 1.26175e-006 -0.167242 0.813912 0 
-0.0989518 -0.0600873 0.0418904 -3.22717e-012 1.56096e-008 -5.10981e-006 0 -0 0 0 -0 0 0 -0 0 -0.712244 0.283764 -7.68703e-012 4.3158 -19.0676 -10.7871 -17.8794 -28.6876 -86.8444 0.514803 5.21185 8.75313 -40.5316 -43.5896 103.283 -7.10789 -4.81548 2.69559 -7.40342 -2.98992 -6.72733 5.89092 0.508958 -5.4973 -5.3917 11.1257 1.19015 -12.1062 -9.35422 19.4153 3.33565 -41.2194 -1.46018 4.14851 13.0308 -22.6893 14.0252 27.9125 58.6713 7.57199 -6.95941 -3.0329 53.327 38.185 89.824 8.93229 4.65011 1.7175 7.12508 4.33167 5.92687 -8.05646 2.08415 5.36875 7.65334 -17.9829 2.46851 9.09113 5.18283 -28.7565 0.226633 39.7883 -21.7833 0.170635 -0.809146 -0.00240955 0.0240216 -0.19464 0.809155 0 0.182041 -0.809146 -0.00257062 8.11085e-007 -0.182024 0.809155 0 
-0.0990263 -0.0600871 0.0421232 -2.73616e-012 1.69263e-008 -5.1098e-006 0 -0 0 0 -0 0 0 -0 0 -0.71226 0.283987 -7.6074e-012 4.3158 -19.0676 -10.7871 -17.8794 -28.6876 -86.8444 0.514803 5.21185 8.75313 -40.5316 -43.5896 103.283 -7.10789 -4.81548 2.69559 -7.40342 -2.98992 -6.72733 5.89092 0.508958 -5.4973 -5.3917 11.1257 1.19015 -12.1062 -9.35422 19.4153 3.33565 -41.2194 -1.46018 4.07421 12.8535 -21.5246 12.9911 28.2661 61.0236 7.43637 -6.83477 -2.97858 52.9822 37.957 89.4627 9.32005 5.18324 1.97291 7.37357 4.88487 6.234 -7.87597 2.54009 5.97915 8.11196 -17.7734 3.10109 9.60896 5.5991 -28.2877 0.820512 39.6844 -20.6228 0.185298 -0.804452 -0.00260144 0.0240216 -0.209301 0.804461 0 0.196704 -0.804452 -0.00276158 9.00731e-007 -0.196686 0.804461 0 
-0.0991005 -0.0600868 0.0423537 -2.51532e-013 1.82308e-008 -5.10979e-006 0 -0 0 0 -0 0 0 -0 0 -0.712275 0.284207 -7.56403e-012 4.3158 -19.0676 -10.7871 -17.8794 -28.6876 -86.8444 0.514803 5.21185 8.75313 -40.5316 -43.5896 103.283 -7.10789 -4.81548 2.69559 -7.40342 -2.98992 -6.72733 5.89092 0.508958 -5.4973 -5.3917 11.1257 1.19015 -12.1062 -9.35422 19.4153 3.33565 -41.2194 -1.46018 4.00046 12.6796 -20.364 12.0223 28.634 63.2134 7.30176 -6.71105 -2.92467 52.6375 37.729 89.1014 9.70781 5.71637 2.22831 7.62206 5.43808 6.54112 -7.69548 2.99603 6.58954 8.57058 -17.5639 3.73368 10.1268 6.01536 -27.8189 1.41439 39.5806 -19.4622 0.199819 -0.799782 -0.00278903 0.0240216 -0.223821 0.799792 0 0.211224 -0.799781 -0.00294823 1.33087e-006 -0.211205 0.799792 0 
-0.0991746 -0.0600867 0.042582 -5.70809e-013 1.95221e-008 -5.10978e-006 0 -0 0 0 -0 0 0 -0 0 -0.712291 0.284426 -7.55233e-012 4.3158 -19.0676 -10.7871 -17.8794 -28.6876 -86.8444 0.514803 5.21185 8.75313 -40.5316 -43.5896 103.283 -7.10789 -4.81548 2.69559 -7.40342 -2.98992 -6.72733 5.89092 0.508958 -5.4973 -5.3917 11.1257 1.19015 -12.1062 -9.35422 19.4153 3.33565 -41.2194 -1.46018 3.92721 12.5086 -19.2069 11.1132 29.0165 65.2626 7.16808 -6.58818 -2.87112 52.2927 37.501 88.7402 10.0956 6.2495 2.48372 7.87055 5.99128 6.84825 -7.51499 3.45197 7.19993 9.0292 -17.3544 4.36627 10.6446 6.43162 -27.3501 2.00827 39.4767 -18.3017 0.214196 -0.79511 -0.00297225 0.0240216 -0.238197 0.795121 0 0.225601 -0.79511 -0.00313051 2.83165e-006 -0.225581 0.795121 0 
-0.0992491 -0.0600866 0.042808 -1.93446e-012 2.08006e-008 -5.10977e-006 0 -0 0 0 -0 0 0 -0 0 -0.712307 0.284645 -7.55764e-012 4.3158 -19.0676 -10.7871 -17.8794 -28.6876 -86.8444 0.514803 5.21185 8.75313 -40.5316 -43.5896 103.283 -7.10789 -4.81548 2.69559 -7.40342 -2.98992 -6.72733 5.89092 0.508958 -5.4973 -5.3917 11.1257 1.19015 -12.1062 -9.35422 19.4153 3.33565 -41.2194 -1.46018 3.85444 12.34 -18.0528 10.2592 29.4137 67.1874 7.03524 -6.46609 -2.81791 51.948 37.273 88.3789 10.4833 6.78263 2.73913 8.11904 6.54448 7.15537 -7.3345 3.90791 7.81033 9.48782 -17.1449 4.99886 11.1624 6.84789 -26.8813 2.60215 39.3729 -17.1411 0.228431 -0.790424 -0.00315111 0.0240216 -0.252431 0.790435 0 0.239837 -0.790423 -0.00330846 1.29194e-006 -0.239815 0.790435 0 
